<mxfile host="app.diagrams.net" modified="2023-09-08T09:14:31.493Z" agent="Mozilla/5.0 (Windows NT 10.0; Win64; x64) AppleWebKit/537.36 (KHTML, like Gecko) Chrome/114.0.0.0 YaBrowser/23.7.4.971 Yowser/2.5 Safari/537.36" version="21.7.2" etag="G-yj5Ta4EhTTT48Wk84E" type="github">
  <diagram name="Страница — 1" id="daWzLAzs2MJCEnYvFwvm">
    <mxGraphModel>
      <root>
        <mxCell id="0" />
        <mxCell id="1" parent="0" />
      </root>
    </mxGraphModel>
  </diagram>
</mxfile>
